<?xml version="1.0" encoding="utf-8"?>
<!-- Generator: Adobe Adobe Illustrator 24.2.0, SVG Export Plug-In . SVG Version: 6.00 Build 0)  -->
<svg version="1.1" xmlns="http://www.w3.org/2000/svg" xmlns:xlink="http://www.w3.org/1999/xlink" x="0px" y="0px" width="34px"
	 height="34px" viewBox="0 0 34 34" style="enable-background:new 0 0 34 34;" xml:space="preserve">
<style type="text/css">
	.st0{stroke:#000000;stroke-width:0.4;stroke-miterlimit:10;}
</style>
<g id="レイヤー_1">
	<g>
		<path class="st0" d="M7.14,32.77c-1.17,0-2.32-0.01-3.47-0.01c-0.06,0-0.11,0-0.16,0c-0.27-0.03-0.47-0.25-0.48-0.51
			c0-0.25,0.18-0.47,0.45-0.52c0.07-0.01,0.15-0.01,0.23-0.01c7.16,0.01,14.33,0.01,21.49,0.02c1.96,0,3.92,0.02,5.88,0.04
			c0.19,0,0.24-0.06,0.24-0.24c0-2.16,0.01-4.32,0.03-6.48c0.03-5.38,0.06-10.75,0.1-16.13c0.02-2.43,0.04-4.86,0.07-7.29
			c0-0.16-0.05-0.19-0.2-0.19C28.16,1.43,25,1.41,21.84,1.38c-3.53-0.03-7.06-0.05-10.59-0.09c-2.79-0.03-5.59-0.06-8.38-0.1
			c-0.2,0-0.25,0.05-0.25,0.25C2.61,6.96,2.59,12.48,2.56,18c-0.02,4.15-0.05,8.3-0.08,12.45c0,0.52-0.01,1.05-0.02,1.57
			c0,0.1-0.01,0.19-0.04,0.28c-0.07,0.23-0.26,0.35-0.49,0.33c-0.21-0.02-0.38-0.17-0.42-0.39c-0.02-0.09-0.02-0.18-0.02-0.27
			C1.52,24.14,1.53,16.3,1.55,8.46c0.01-2.5,0.02-5,0.02-7.5c0-0.09,0-0.18,0.02-0.27c0.06-0.32,0.25-0.48,0.57-0.48
			c3.86,0.01,7.72,0.02,11.58,0.05c4.16,0.03,8.31,0.06,12.47,0.1c1.87,0.02,3.74,0.03,5.62,0.05c0.49,0,0.67,0.2,0.66,0.68
			c-0.01,2.78,0,5.56-0.01,8.34c-0.01,3.99-0.04,7.98-0.06,11.98c-0.01,2.63-0.03,5.26-0.04,7.89c0,0.9-0.02,1.8-0.01,2.7
			c0.01,0.55-0.25,0.76-0.77,0.76c-2.44-0.01-4.87,0.02-7.31,0.02C18.58,32.78,12.87,32.77,7.14,32.77z"/>
		<path class="st0" d="M24.4,8.06c0.81,0.6,1.61,1.18,2.39,1.78c0.14,0.11,0.26,0.26,0.35,0.42c0.11,0.19,0.06,0.4-0.05,0.59
			c-0.39,0.66-0.77,1.32-1.17,1.97c-0.42,0.69-0.86,1.36-1.28,2.05c-0.23,0.38-0.51,0.56-0.97,0.56c-2.09-0.03-4.18-0.05-6.27-0.05
			c-2.13,0-4.27,0.03-6.4,0.05c-0.31,0-0.55-0.11-0.71-0.37c-0.83-1.35-1.67-2.71-2.49-4.07c-0.3-0.49-0.24-0.78,0.22-1.14
			C9.11,9,10.19,8.13,11.4,7.47c1.56-0.84,3.23-1.33,5.01-1.47c2.6-0.21,5.01,0.35,7.28,1.61C23.93,7.75,24.16,7.91,24.4,8.06z
			 M11.19,14.07c0.05,0.14,0.17,0.15,0.3,0.15c0.98-0.03,1.97-0.06,2.95-0.08c0.78-0.02,1.56-0.01,2.33-0.03
			c0.09,0,0.22-0.06,0.27-0.13c0.53-0.9,1.03-1.82,1.56-2.72c0.12-0.21,0.25-0.43,0.42-0.61c0.23-0.24,0.59-0.22,0.83,0.01
			c0.23,0.22,0.25,0.54,0.05,0.87c-0.47,0.8-0.94,1.6-1.42,2.4c-0.09,0.16-0.07,0.19,0.11,0.19c1.6,0.03,3.19,0.06,4.79,0.1
			c0.14,0,0.22-0.04,0.3-0.16c0.69-1.11,1.39-2.21,2.1-3.31c0.08-0.13,0.05-0.18-0.06-0.26c-0.66-0.45-1.32-0.9-1.97-1.36
			c-0.15-0.11-0.22-0.07-0.29,0.08c-0.13,0.28-0.28,0.55-0.43,0.82c-0.12,0.23-0.24,0.47-0.38,0.68c-0.15,0.21-0.37,0.3-0.63,0.25
			c-0.26-0.06-0.44-0.23-0.47-0.49c-0.02-0.17,0.03-0.36,0.1-0.51c0.23-0.47,0.48-0.93,0.73-1.39c0.08-0.14,0.07-0.22-0.09-0.27
			c-0.61-0.22-1.22-0.46-1.84-0.67c-0.37-0.13-0.38-0.11-0.47,0.27c-0.01,0.04-0.02,0.08-0.03,0.12c-0.12,0.48-0.24,0.96-0.37,1.44
			c-0.07,0.27-0.26,0.44-0.54,0.48c-0.24,0.03-0.43-0.07-0.57-0.26c-0.13-0.18-0.14-0.38-0.09-0.59c0.13-0.53,0.26-1.06,0.4-1.58
			c0.04-0.15,0-0.19-0.14-0.2c-0.8-0.1-1.6-0.1-2.41,0c-0.16,0.02-0.17,0.06-0.13,0.21c0.14,0.54,0.28,1.08,0.4,1.62
			c0.09,0.41-0.14,0.75-0.53,0.81c-0.32,0.04-0.6-0.17-0.71-0.56c-0.14-0.54-0.27-1.08-0.4-1.62c-0.04-0.18-0.11-0.23-0.28-0.17
			c-0.68,0.25-1.35,0.49-2.03,0.73c-0.15,0.05-0.14,0.13-0.08,0.25c0.2,0.36,0.39,0.73,0.58,1.09c0.09,0.17,0.18,0.34,0.25,0.52
			c0.09,0.25-0.01,0.52-0.22,0.68c-0.19,0.15-0.47,0.17-0.68,0.03c-0.13-0.09-0.24-0.23-0.32-0.37c-0.25-0.44-0.48-0.9-0.71-1.35
			c-0.06-0.12-0.11-0.14-0.23-0.06c-0.66,0.47-1.33,0.92-2,1.38c-0.1,0.07-0.14,0.11-0.06,0.24C9.77,11.84,10.47,12.94,11.19,14.07z
			"/>
	</g>
</g>
<g id="レイヤー_2">
</g>
</svg>
