<?xml version="1.0" encoding="utf-8"?>
<!-- Generator: Adobe Adobe Illustrator 24.2.0, SVG Export Plug-In . SVG Version: 6.00 Build 0)  -->
<svg version="1.1" xmlns="http://www.w3.org/2000/svg" xmlns:xlink="http://www.w3.org/1999/xlink" x="0px" y="0px" width="34px"
	 height="34px" viewBox="0 0 34 34" style="enable-background:new 0 0 34 34;" xml:space="preserve">
<style type="text/css">
	.st0{stroke:#000000;stroke-width:0.7;stroke-linecap:round;stroke-linejoin:bevel;stroke-miterlimit:10;}
	.st1{stroke:#000000;stroke-width:0.5;stroke-miterlimit:10;}
	.st2{stroke:#000000;stroke-width:0.2;stroke-miterlimit:10;}
</style>
<g id="レイヤー_1">
	<g>
		<path d="M0.81,22.84c-0.01-0.04-0.04-0.08-0.04-0.12c-0.02-0.21-0.03-0.42-0.05-0.64c-0.01-0.97-0.01-1.93-0.01-2.9
			c0.01-0.06,0.02-0.1,0.03-0.14c0.01-0.28,0.02-0.56,0.03-0.84c0-0.02,0.01-0.05,0.03-0.06c0,0.46-0.03,0.91-0.04,1.37
			c-0.01,0.53-0.02,1.07-0.02,1.6c0,0.27,0.03,0.55,0.04,0.82C0.8,22.24,0.81,22.54,0.81,22.84z"/>
		<path class="st0" d="M0.82,22.85c-0.01-0.31-0.02-0.62-0.03-0.92c-0.01-0.27-0.04-0.55-0.04-0.82c0-0.53,0.01-1.07,0.02-1.6
			c0.01-0.45,0.03-0.91,0.05-1.37c0-0.03,0-0.05,0.01-0.08c0.04-0.43,0.07-0.83,0.1-1.24c0.01-0.13,0.01-0.26,0.01-0.39
			c0-0.01,0-0.02,0.01-0.04c0.01-0.09,0.02-0.17,0.02-0.24c0-0.02,0-0.04,0.01-0.07c0.03-0.23,0.05-0.45,0.06-0.67
			c0-0.01,0-0.02,0.01-0.05c0.03-0.2,0.04-0.38,0.06-0.57c0-0.01,0-0.02,0.01-0.05c0.05-0.27,0.08-0.52,0.12-0.77
			c0.01-0.07,0.01-0.13,0.02-0.2c0-0.01,0-0.02,0.01-0.05c0.03-0.1,0.05-0.19,0.07-0.27c0.11-0.5,0.2-0.99,0.32-1.49
			c0.14-0.55,0.32-1.1,0.62-1.59c0.08-0.14,0.18-0.27,0.26-0.4c0.01-0.01,0.02-0.02,0.04-0.04c0.11-0.11,0.2-0.21,0.3-0.31
			c0,0,0,0,0.01,0c0.08-0.05,0.14-0.1,0.22-0.15C3.23,9.41,3.27,9.32,3.3,9.2c0.08-0.43,0.17-0.85,0.27-1.27
			c0.07-0.32,0.21-0.61,0.39-0.89C3.98,7.02,4,7,4.04,6.97c0.04-0.03,0.06-0.05,0.08-0.08c0,0,0.01,0,0.02-0.01
			C4.39,6.74,4.64,6.65,4.9,6.6c0.11-0.02,0.22-0.05,0.33-0.08c0.01,0,0.02,0,0.05,0c0.14-0.01,0.26-0.03,0.38-0.05
			c0.11,0,0.22,0,0.35,0.01C6.13,6.5,6.23,6.51,6.33,6.51c0.02,0,0.03,0,0.06,0.01c0.17,0.04,0.32,0.07,0.48,0.1
			c0.01,0,0.02,0,0.04,0.01c0.04,0.01,0.07,0.02,0.11,0.03c0.01,0,0.02,0,0.04,0.01C7.19,6.74,7.32,6.8,7.45,6.86
			C7.48,6.9,7.52,6.93,7.56,6.98C7.6,7.01,7.62,7.03,7.65,7.05c0,0,0,0,0,0.01c0.05,0.07,0.1,0.14,0.14,0.2
			c0,0.01,0.01,0.02,0.01,0.04c0.03,0.08,0.07,0.14,0.1,0.2c0,0.01,0.01,0.02,0.01,0.05c0.02,0.06,0.04,0.11,0.06,0.17
			c0.05-0.06,0.1-0.1,0.13-0.15c0.1-0.15,0.21-0.31,0.3-0.47c0.12-0.24,0.23-0.48,0.35-0.73c0,0,0-0.01,0.01-0.02
			C8.79,6.33,8.8,6.31,8.81,6.29C9.03,5.85,9.26,5.41,9.6,5.05C9.71,4.93,9.82,4.82,9.93,4.7C9.94,4.7,9.95,4.69,9.98,4.68
			c0.06-0.04,0.1-0.07,0.15-0.1c0.47-0.32,1-0.46,1.55-0.55c0.69-0.12,1.39-0.2,2.09-0.23c0.04,0,0.08-0.02,0.12-0.03
			c0.04,0,0.08,0,0.14,0c0.29,0,0.56-0.01,0.84-0.02c0.02,0,0.04-0.01,0.06-0.02c0.1,0,0.2,0,0.33,0c1.18,0,2.33,0,3.49,0
			c0.02,0,0.04-0.01,0.06-0.01c0.1,0,0.2,0,0.32,0.01c0.17,0.01,0.31,0.02,0.46,0.02c0.15,0,0.29,0,0.44,0.01
			c0.04,0,0.08,0,0.14,0.01c0.22,0.02,0.42,0.04,0.62,0.06c0.45,0.05,0.91,0.09,1.36,0.16c0.46,0.06,0.92,0.16,1.34,0.36
			c0.15,0.07,0.29,0.15,0.44,0.22c0,0,0.01,0.01,0.01,0.02c0.05,0.04,0.09,0.07,0.13,0.09c0.02,0.02,0.04,0.03,0.07,0.06
			c0.09,0.08,0.16,0.15,0.24,0.22c0,0,0,0,0,0.01c0.04,0.05,0.08,0.09,0.12,0.12c0.01,0.02,0.03,0.04,0.05,0.07
			c0.03,0.04,0.06,0.07,0.08,0.1c0,0,0,0,0,0.01c0.03,0.04,0.06,0.07,0.09,0.11c0,0,0,0.01,0.01,0.02c0.03,0.04,0.05,0.07,0.07,0.1
			c0,0,0,0.01,0.01,0.02c0.02,0.04,0.04,0.06,0.06,0.08c0.01,0.02,0.02,0.04,0.03,0.07c0.01,0.02,0.02,0.02,0.02,0.03
			c0,0,0,0.01,0.01,0.02c0.02,0.03,0.03,0.04,0.04,0.06c0,0.01,0.01,0.02,0.01,0.04c0.01,0.02,0.02,0.02,0.02,0.03
			c0,0,0,0.01,0,0.02c0.01,0.03,0.03,0.04,0.04,0.06c0,0,0,0.01,0,0.02c0.01,0.03,0.03,0.04,0.04,0.06
			c0.01,0.03,0.02,0.05,0.04,0.09c0.02,0.03,0.03,0.05,0.04,0.06c0,0,0,0.01,0.01,0.02c0.01,0.02,0.01,0.02,0.02,0.03
			c0,0.01,0.01,0.02,0.01,0.04c0.02,0.05,0.04,0.08,0.07,0.11c0,0.01,0.01,0.02,0.01,0.04c0.03,0.07,0.06,0.13,0.1,0.18
			c0,0,0,0.01,0.01,0.02c0.05,0.1,0.1,0.19,0.15,0.28c0,0,0,0.01,0,0.02c0.02,0.03,0.03,0.06,0.05,0.08c0,0,0,0,0,0.01
			c0.03,0.06,0.07,0.12,0.1,0.17c0,0,0,0.01,0.01,0.02c0.02,0.03,0.03,0.04,0.04,0.06c0.01,0.02,0.02,0.04,0.03,0.07
			c0.03,0.05,0.05,0.08,0.08,0.11c0.01,0.01,0.01,0.02,0.02,0.05c0.02,0.03,0.03,0.04,0.05,0.06c0,0,0,0.01,0.01,0.02
			c0.03,0.04,0.05,0.07,0.08,0.1c0,0.01,0.01,0.01,0.02,0.03c0.02,0.02,0.04,0.04,0.05,0.05c0,0.01,0.01,0.01,0.02,0.03
			c0.02,0.02,0.04,0.04,0.05,0.05c0.06,0.06,0.11,0.11,0.18,0.18c0.04,0.03,0.06,0.05,0.09,0.07c0.01,0.01,0.02,0.02,0.04,0.04
			c0.03,0.02,0.04,0.03,0.06,0.04c0,0,0.01,0,0.02,0.01c0.04,0.03,0.08,0.04,0.11,0.06c0,0,0.01,0,0.02,0.01
			c0.31,0.17,0.64,0.26,0.98,0.29c0.01,0,0.02,0,0.05,0.01c0.1,0.02,0.18,0.04,0.26,0.05c0.23,0.03,0.46,0.06,0.69,0.08
			c0.02,0,0.04,0.01,0.07,0.02c0.17,0.04,0.33,0.06,0.49,0.1c0.29,0.07,0.58,0.15,0.87,0.22c0.01,0,0.02,0.01,0.04,0.02
			c0.11,0.05,0.22,0.09,0.32,0.14c0,0,0.01,0,0.02,0.01c0.09,0.05,0.18,0.1,0.26,0.14c0,0,0.01,0,0.02,0.01
			c0.04,0.03,0.08,0.05,0.11,0.06c0,0,0.01,0.01,0.01,0.01c0.03,0.03,0.06,0.04,0.09,0.06c0,0,0.01,0.01,0.02,0.01
			C30.97,9.5,31,9.52,31.02,9.54c0.02,0.02,0.04,0.03,0.07,0.06c0.03,0.03,0.06,0.05,0.08,0.07c0.06,0.06,0.11,0.11,0.17,0.18
			c0.03,0.03,0.06,0.05,0.08,0.07c0,0,0,0,0,0.01c0.02,0.02,0.03,0.04,0.05,0.05c0.01,0.02,0.03,0.04,0.05,0.07
			c0.02,0.03,0.04,0.04,0.05,0.05c0.01,0.01,0.01,0.02,0.03,0.05c0.02,0.03,0.03,0.04,0.05,0.05c0,0,0,0.01,0.01,0.02
			c0.02,0.03,0.03,0.04,0.05,0.06c0.02,0.03,0.03,0.06,0.05,0.1c0.02,0.03,0.03,0.04,0.05,0.06c0,0,0,0.01,0.01,0.02
			c0.02,0.03,0.03,0.04,0.04,0.06c0.01,0.03,0.02,0.05,0.04,0.09c0.03,0.06,0.05,0.09,0.07,0.13c0.01,0.03,0.02,0.05,0.03,0.09
			c0.02,0.06,0.04,0.1,0.07,0.14c0,0.01,0.01,0.02,0.01,0.04c0.01,0.04,0.03,0.06,0.04,0.09c0,0.01,0,0.02,0.01,0.04
			c0.02,0.06,0.05,0.11,0.07,0.16c0,0.01,0,0.02,0.01,0.05c0.02,0.07,0.05,0.13,0.07,0.18c0.1,0.38,0.21,0.75,0.28,1.13
			c0.11,0.52,0.2,1.05,0.28,1.58c0.09,0.57,0.15,1.13,0.22,1.7c0.04,0.32,0.07,0.65,0.09,0.98c0.05,0.87,0.12,1.74,0.14,2.6
			c0.02,0.86,0,1.72-0.02,2.57c-0.02,0.85-0.13,1.7-0.26,2.54c-0.09,0.57-0.2,1.13-0.38,1.68c-0.37,1.12-1.09,1.92-2.11,2.49
			c-0.88,0.49-1.83,0.78-2.83,0.92c-0.88,0.12-1.77,0.22-2.65,0.3c-0.8,0.07-1.61,0.12-2.41,0.16c-0.77,0.04-1.54,0.07-2.32,0.08
			c-1.65,0.02-3.29,0.04-4.94,0.04c-0.97,0-1.94-0.03-2.9-0.07c-0.94-0.04-1.88-0.08-2.82-0.15C8.75,30.03,7.88,29.93,7,29.84
			c-0.2-0.02-0.4-0.06-0.62-0.1c-0.04-0.01-0.06-0.01-0.08-0.01c-0.02,0-0.04-0.01-0.07-0.02c-0.11-0.02-0.21-0.04-0.31-0.05
			c-0.03,0-0.05-0.01-0.09-0.02c-0.04-0.01-0.06-0.01-0.08-0.01c-0.04-0.01-0.08-0.01-0.13-0.03c-0.04-0.01-0.07-0.02-0.1-0.02
			c-0.01,0-0.02-0.01-0.05-0.02c-0.07-0.02-0.13-0.03-0.18-0.04c-0.04-0.01-0.07-0.02-0.12-0.04c-0.19-0.06-0.37-0.11-0.54-0.17
			c-0.02,0-0.03-0.01-0.06-0.02c-0.02-0.01-0.03-0.01-0.04-0.01c-0.01,0-0.02-0.01-0.04-0.02c-0.05-0.03-0.1-0.04-0.14-0.06
			c-0.01,0-0.02-0.01-0.04-0.02c-0.03-0.01-0.05-0.02-0.07-0.03c-0.01,0-0.02-0.01-0.04-0.02c-0.02-0.01-0.03-0.01-0.04-0.01
			c-0.01,0-0.02-0.01-0.04-0.02C4.1,29.1,4.08,29.1,4.06,29.09c-0.02-0.01-0.05-0.02-0.09-0.05c-0.03-0.02-0.05-0.02-0.07-0.03
			c-0.01,0-0.02-0.01-0.04-0.02c-0.02-0.01-0.03-0.01-0.04-0.02c0,0-0.01,0-0.02-0.01c-0.04-0.02-0.08-0.04-0.11-0.06
			c-0.01,0-0.02-0.01-0.04-0.02c-0.05-0.03-0.08-0.04-0.12-0.06c0,0-0.01,0-0.02-0.01c-0.13-0.08-0.25-0.15-0.37-0.22
			c-0.03-0.02-0.05-0.04-0.09-0.06c-0.02-0.01-0.03-0.02-0.03-0.02C3.03,28.51,3.02,28.5,3,28.48c-0.03-0.02-0.04-0.03-0.06-0.04
			c-0.01-0.01-0.02-0.02-0.04-0.04c-0.04-0.03-0.06-0.05-0.09-0.06c-0.01-0.01-0.02-0.02-0.04-0.04c-0.04-0.04-0.08-0.06-0.11-0.09
			c-0.07-0.07-0.14-0.13-0.22-0.21c-0.07-0.07-0.12-0.13-0.18-0.18c-0.01-0.01-0.02-0.02-0.03-0.04c-0.02-0.03-0.04-0.04-0.05-0.05
			c0,0-0.01,0,0-0.01c-0.02-0.03-0.03-0.05-0.05-0.06c0,0,0,0,0-0.01c-0.02-0.03-0.04-0.05-0.07-0.08c0,0,0-0.01-0.01-0.02
			c-0.04-0.05-0.07-0.09-0.1-0.13c-0.01-0.01-0.01-0.02-0.02-0.05c-0.04-0.07-0.08-0.13-0.12-0.18c-0.01-0.02-0.02-0.04-0.03-0.07
			c-0.12-0.31-0.25-0.6-0.37-0.89c-0.05-0.12-0.09-0.25-0.13-0.38c0-0.01,0-0.02,0-0.05c-0.05-0.22-0.1-0.42-0.15-0.61
			c0-0.01,0-0.02,0-0.05c-0.01-0.12-0.03-0.22-0.05-0.32c-0.03-0.19-0.07-0.38-0.11-0.58c0-0.02,0-0.04,0-0.07
			C0.96,24.1,0.95,24.05,0.93,24c0-0.01,0-0.02,0-0.04c-0.01-0.14-0.02-0.27-0.04-0.4c-0.01-0.06-0.03-0.11-0.04-0.17
			c0-0.01,0-0.02,0.01-0.04c-0.01-0.15-0.03-0.28-0.04-0.41C0.82,22.92,0.82,22.89,0.82,22.85z M2.34,26.03
			c0.2,0.56,0.49,1.06,0.95,1.45c0.52,0.45,1.13,0.75,1.78,0.97c0.65,0.22,1.32,0.34,2,0.41c0.98,0.11,1.96,0.21,2.94,0.29
			c0.68,0.06,1.36,0.08,2.03,0.11c0.84,0.03,1.68,0.06,2.52,0.08c1.13,0.02,2.26,0.02,3.39,0.01c1.01-0.01,2.02-0.02,3.03-0.06
			c0.89-0.03,1.77-0.07,2.66-0.13c0.79-0.05,1.58-0.11,2.37-0.19c0.64-0.07,1.27-0.17,1.9-0.27c0.75-0.11,1.45-0.36,2.11-0.72
			c0.64-0.36,1.17-0.82,1.5-1.5c0.24-0.5,0.37-1.03,0.47-1.57c0.08-0.45,0.14-0.9,0.19-1.35c0.06-0.53,0.12-1.07,0.14-1.61
			c0.04-1.55,0.02-3.1-0.1-4.65c-0.04-0.49-0.07-0.97-0.13-1.46c-0.09-0.7-0.19-1.4-0.29-2.1c-0.12-0.79-0.29-1.57-0.57-2.32
			c-0.2-0.56-0.52-1.03-1.05-1.33c-0.38-0.22-0.8-0.34-1.23-0.42c-0.55-0.1-1.1-0.18-1.64-0.26c-1.01-0.16-1.78-0.68-2.3-1.56
			c-0.27-0.47-0.52-0.95-0.76-1.44C23.84,5.64,23.26,5.12,22.37,5c-0.65-0.09-1.29-0.19-1.94-0.24c-0.7-0.06-1.4-0.07-2.1-0.08
			c-0.48-0.01-0.97,0.01-1.45,0.01c-0.22,0-0.44-0.02-0.66-0.01c-0.93,0.03-1.86,0.04-2.79,0.1c-0.62,0.04-1.23,0.14-1.84,0.23
			c-0.73,0.11-1.29,0.49-1.63,1.15C9.67,6.71,9.4,7.28,9.12,7.84C8.86,8.35,8.5,8.79,7.97,9.04C7.39,9.33,6.76,9.43,6.12,9.54
			C5.61,9.62,5.09,9.7,4.59,9.82C3.97,9.97,3.45,10.3,3.1,10.86c-0.22,0.36-0.36,0.76-0.47,1.16c-0.23,0.82-0.4,1.66-0.5,2.5
			c-0.12,1.03-0.23,2.06-0.32,3.1c-0.06,0.69-0.08,1.39-0.1,2.09c-0.03,1.51-0.01,3.02,0.23,4.52C2.04,24.83,2.14,25.43,2.34,26.03z
			 M7.06,8.35c0.07-0.03,0.15-0.05,0.21-0.09c0.04-0.02,0.07-0.09,0.06-0.12c-0.05-0.18-0.11-0.36-0.2-0.52
			C7.1,7.53,6.99,7.45,6.9,7.43C6.21,7.26,5.52,7.3,4.82,7.4c-0.25,0.04-0.4,0.18-0.47,0.42c-0.07,0.25-0.15,0.5-0.21,0.75
			C4.11,8.69,4.09,8.82,4.06,8.95c0.04-0.01,0.06-0.01,0.08-0.01c0.48-0.1,0.95-0.21,1.43-0.3C6.06,8.54,6.56,8.45,7.06,8.35z"/>
		<path d="M13.87,3.76c-0.03,0.02-0.06,0.04-0.1,0.04c-0.7,0.03-1.4,0.11-2.09,0.23c-0.55,0.1-1.08,0.24-1.55,0.55
			c-0.05,0.03-0.09,0.06-0.15,0.09c0.07-0.07,0.15-0.17,0.24-0.22c0.32-0.14,0.64-0.27,0.97-0.36c0.38-0.1,0.77-0.17,1.16-0.22
			c0.3-0.05,0.6-0.06,0.91-0.08C13.46,3.77,13.66,3.76,13.87,3.76z"/>
		<path d="M2.55,9.97c-0.08,0.13-0.17,0.26-0.26,0.4c-0.3,0.49-0.48,1.03-0.62,1.59c-0.12,0.49-0.21,0.99-0.32,1.49
			c-0.02,0.09-0.04,0.17-0.07,0.26c0-0.13,0-0.26,0.03-0.39c0.11-0.53,0.21-1.06,0.36-1.58c0.12-0.41,0.28-0.82,0.46-1.21
			C2.23,10.33,2.4,10.16,2.55,9.97z"/>
		<path d="M23.91,4.56c-0.14-0.07-0.29-0.15-0.44-0.22c-0.43-0.19-0.88-0.29-1.34-0.36c-0.45-0.06-0.91-0.11-1.36-0.16
			c-0.2-0.02-0.4-0.03-0.61-0.06c0.32,0.01,0.64,0.03,0.96,0.05c0.12,0.01,0.24,0.02,0.35,0.04c0.47,0.08,0.94,0.13,1.4,0.24
			c0.34,0.09,0.66,0.26,0.98,0.39C23.88,4.5,23.9,4.53,23.91,4.56z"/>
		<path d="M18.79,3.71c-0.02,0.01-0.04,0.02-0.06,0.02c-1.15,0-2.31,0-3.48-0.01c0.02-0.02,0.05-0.04,0.09-0.04
			c1.12,0,2.25,0,3.37,0C18.74,3.68,18.76,3.69,18.79,3.71z"/>
		<path d="M3.95,7.04c-0.17,0.27-0.3,0.57-0.38,0.89C3.47,8.35,3.38,8.77,3.3,9.2C3.27,9.32,3.23,9.41,3.12,9.47
			C3.05,9.52,2.98,9.57,2.9,9.62c0.06-0.07,0.14-0.13,0.21-0.21c0.05-0.06,0.11-0.12,0.13-0.19c0.11-0.49,0.2-0.98,0.32-1.46
			c0.06-0.22,0.18-0.42,0.28-0.62C3.86,7.1,3.9,7.07,3.95,7.04z"/>
		<path d="M9.92,4.7C9.82,4.82,9.71,4.93,9.6,5.05c-0.34,0.36-0.57,0.8-0.78,1.24C8.8,6.31,8.79,6.33,8.76,6.36
			c0.02-0.08,0.05-0.17,0.09-0.25c0.23-0.46,0.48-0.9,0.86-1.26C9.77,4.79,9.84,4.75,9.92,4.7z"/>
		<path d="M8.74,6.38C8.63,6.62,8.53,6.87,8.4,7.11c-0.09,0.16-0.19,0.32-0.3,0.47C8.07,7.62,8.03,7.66,7.98,7.72
			C7.95,7.66,7.93,7.61,7.92,7.56C7.99,7.63,8.03,7.6,8.08,7.52C8.3,7.14,8.51,6.76,8.74,6.38z"/>
		<path d="M0.93,16.42c0,0.12,0,0.25,0,0.38c-0.03,0.41-0.06,0.82-0.1,1.23c-0.01-0.12-0.03-0.25-0.02-0.38
			c0.02-0.31,0.05-0.61,0.07-0.92C0.89,16.64,0.9,16.53,0.93,16.42z"/>
		<path d="M30.05,8.99c-0.29-0.07-0.58-0.15-0.87-0.22c-0.16-0.04-0.31-0.06-0.48-0.1c0.12,0,0.24,0,0.36,0.03
			c0.32,0.08,0.63,0.17,0.95,0.25C30.03,8.96,30.04,8.97,30.05,8.99z"/>
		<path d="M1.27,25.86c0.05,0.12,0.09,0.25,0.14,0.37c0.12,0.29,0.24,0.58,0.36,0.89c-0.06-0.09-0.14-0.19-0.18-0.3
			c-0.11-0.29-0.21-0.58-0.32-0.87C1.25,25.93,1.26,25.89,1.27,25.86z"/>
		<path d="M5.22,6.52C5.12,6.55,5.01,6.58,4.9,6.6C4.64,6.65,4.39,6.74,4.14,6.89C4.19,6.84,4.24,6.77,4.3,6.74
			C4.59,6.62,4.89,6.51,5.22,6.52z"/>
		<path d="M1.26,13.77c0,0.06,0,0.13-0.01,0.19c-0.04,0.25-0.08,0.51-0.12,0.77c-0.01-0.03-0.03-0.08-0.02-0.11
			c0.04-0.26,0.08-0.52,0.12-0.77C1.23,13.82,1.24,13.8,1.26,13.77z"/>
		<path d="M27.63,8.51c-0.34-0.02-0.66-0.11-0.97-0.28c0.14,0.03,0.28,0.08,0.43,0.12c0.16,0.04,0.33,0.08,0.5,0.13
			C27.6,8.48,27.61,8.49,27.63,8.51z"/>
		<path d="M14.91,3.72c-0.01,0.01-0.03,0.03-0.05,0.03c-0.27,0.01-0.55,0.02-0.83,0.02c0.07-0.02,0.15-0.05,0.23-0.06
			C14.48,3.7,14.69,3.71,14.91,3.72z"/>
		<path d="M28.63,8.66c-0.22-0.02-0.45-0.04-0.68-0.07c-0.08-0.01-0.16-0.03-0.25-0.05c0.02-0.01,0.05-0.03,0.07-0.03
			c0.28,0.04,0.55,0.08,0.83,0.13C28.6,8.63,28.61,8.64,28.63,8.66z"/>
		<path d="M20.01,3.75c-0.14,0.01-0.28,0.01-0.43,0c-0.15,0-0.29-0.01-0.45-0.02c0.22-0.01,0.45-0.02,0.67-0.01
			C19.87,3.72,19.93,3.74,20.01,3.75z"/>
		<path d="M0.97,24.25c0.04,0.18,0.08,0.38,0.11,0.57c0.02,0.1,0.03,0.2,0.04,0.31c-0.04-0.11-0.08-0.23-0.1-0.36
			C0.99,24.6,0.98,24.43,0.97,24.25z"/>
		<path d="M1.03,15.4c-0.01,0.21-0.03,0.43-0.06,0.65c-0.01-0.04-0.03-0.08-0.03-0.12C0.97,15.76,1,15.58,1.03,15.4z"/>
		<path d="M1.12,25.19c0.06,0.19,0.11,0.39,0.15,0.6c-0.03-0.06-0.07-0.13-0.09-0.2C1.15,25.46,1.13,25.33,1.12,25.19z"/>
		<path d="M1.11,14.79c-0.01,0.18-0.03,0.36-0.06,0.55c0-0.11,0-0.23,0.01-0.35C1.07,14.93,1.09,14.86,1.11,14.79z"/>
		<path d="M0.85,23.4c0.02,0.04,0.04,0.1,0.04,0.15c0.02,0.13,0.03,0.26,0.04,0.4C0.91,23.78,0.88,23.6,0.85,23.4z"/>
		<path d="M4.62,29.33c0.17,0.04,0.35,0.1,0.53,0.16c-0.01,0.01-0.03,0.03-0.04,0.03C4.95,29.46,4.79,29.4,4.62,29.33z"/>
		<path d="M6.86,6.62C6.71,6.59,6.56,6.56,6.4,6.53C6.55,6.55,6.7,6.58,6.86,6.62z"/>
		<path d="M2.88,9.62C2.8,9.72,2.7,9.82,2.6,9.93C2.63,9.77,2.77,9.71,2.88,9.62z"/>
		<path d="M0.81,22.95c0.02,0.12,0.04,0.25,0.05,0.39C0.84,23.22,0.82,23.09,0.81,22.95z"/>
		<path d="M7.45,6.86C7.32,6.8,7.19,6.74,7.06,6.68C7.22,6.66,7.35,6.72,7.45,6.86z"/>
		<path d="M5.66,6.47C5.54,6.49,5.42,6.51,5.29,6.52C5.4,6.5,5.53,6.48,5.66,6.47z"/>
		<path d="M3.17,28.61c0.12,0.06,0.24,0.13,0.36,0.21C3.41,28.76,3.29,28.69,3.17,28.61z"/>
		<path d="M6.32,6.51c-0.09,0-0.19-0.01-0.29-0.02C6.12,6.49,6.22,6.49,6.32,6.51z"/>
		<path d="M24.37,4.95c-0.08-0.06-0.15-0.13-0.23-0.21C24.21,4.8,24.29,4.87,24.37,4.95z"/>
		<path d="M30.41,9.15c-0.1-0.03-0.2-0.08-0.31-0.13C30.2,9.05,30.3,9.1,30.41,9.15z"/>
		<path d="M25.54,6.89c-0.05-0.08-0.1-0.17-0.15-0.27C25.44,6.7,25.49,6.79,25.54,6.89z"/>
		<path d="M30.69,9.3c-0.08-0.03-0.17-0.08-0.26-0.13C30.52,9.21,30.6,9.25,30.69,9.3z"/>
		<path d="M5.92,29.67c0.09,0.01,0.19,0.02,0.3,0.05C6.13,29.71,6.02,29.69,5.92,29.67z"/>
		<path d="M2.26,27.84c0.06,0.05,0.11,0.1,0.17,0.17C2.37,27.96,2.32,27.9,2.26,27.84z"/>
		<path d="M7.8,7.25C7.75,7.19,7.7,7.13,7.65,7.06C7.7,7.11,7.75,7.17,7.8,7.25z"/>
		<path d="M0.96,16.14c0,0.07,0,0.15-0.01,0.23C0.94,16.3,0.94,16.22,0.96,16.14z"/>
		<path d="M7.91,7.5C7.87,7.44,7.84,7.38,7.81,7.3C7.85,7.36,7.88,7.43,7.91,7.5z"/>
		<path d="M1.8,27.2c0.04,0.05,0.08,0.1,0.12,0.17C1.88,27.32,1.84,27.26,1.8,27.2z"/>
		<path d="M25.38,6.58c-0.03-0.05-0.06-0.1-0.1-0.17C25.32,6.46,25.35,6.52,25.38,6.58z"/>
		<path d="M24.49,5.08c-0.04-0.03-0.08-0.07-0.12-0.11C24.41,4.99,24.45,5.03,24.49,5.08z"/>
		<path d="M25.69,7.17c-0.04-0.04-0.07-0.1-0.1-0.16C25.62,7.05,25.66,7.11,25.69,7.17z"/>
		<path d="M5.28,29.53c0.05,0,0.11,0.01,0.17,0.03C5.4,29.56,5.34,29.55,5.28,29.53z"/>
		<path d="M0.93,24.02c0.02,0.04,0.03,0.09,0.04,0.15C0.95,24.12,0.94,24.07,0.93,24.02z"/>
		<path d="M32.26,11.53c-0.03-0.05-0.05-0.1-0.07-0.17C32.22,11.41,32.24,11.46,32.26,11.53z"/>
		<path d="M1.95,27.43c0.03,0.03,0.07,0.07,0.1,0.12C2.01,27.52,1.98,27.48,1.95,27.43z"/>
		<path d="M32.19,11.3c-0.03-0.04-0.05-0.09-0.07-0.14C32.14,11.19,32.17,11.24,32.19,11.3z"/>
		<path d="M24.06,4.67c-0.04-0.02-0.08-0.05-0.13-0.08C23.97,4.6,24.02,4.63,24.06,4.67z"/>
		<path d="M2.66,28.23c0.03,0.02,0.07,0.04,0.11,0.08C2.73,28.29,2.7,28.26,2.66,28.23z"/>
		<path d="M31.96,10.73c-0.03-0.03-0.05-0.07-0.07-0.12C31.91,10.65,31.94,10.69,31.96,10.73z"/>
		<path d="M24.72,5.36c-0.03-0.02-0.06-0.06-0.09-0.1C24.66,5.29,24.69,5.32,24.72,5.36z"/>
		<path d="M30.82,9.38c-0.03-0.01-0.07-0.03-0.1-0.05C30.74,9.33,30.78,9.35,30.82,9.38z"/>
		<path d="M7.01,6.66c-0.03,0-0.06-0.01-0.09-0.02C6.95,6.64,6.98,6.64,7.01,6.66z"/>
		<path d="M32.06,10.97c-0.02-0.03-0.04-0.07-0.06-0.12C32.02,10.88,32.04,10.92,32.06,10.97z"/>
		<path d="M4.34,29.22c0.04,0.01,0.08,0.02,0.13,0.05C4.43,29.26,4.39,29.25,4.34,29.22z"/>
		<path d="M24.63,5.25c-0.03-0.02-0.05-0.05-0.08-0.08C24.57,5.18,24.6,5.21,24.63,5.25z"/>
		<path d="M24.8,5.49c-0.03-0.02-0.05-0.05-0.07-0.09C24.75,5.42,24.77,5.45,24.8,5.49z"/>
		<path d="M3.7,28.92c0.03,0.01,0.07,0.02,0.11,0.05C3.78,28.96,3.74,28.94,3.7,28.92z"/>
		<path d="M3.55,28.84c0.03,0.01,0.07,0.02,0.11,0.05C3.63,28.88,3.59,28.86,3.55,28.84z"/>
		<path d="M25.28,6.36c-0.02-0.02-0.05-0.06-0.07-0.1C25.24,6.28,25.26,6.32,25.28,6.36z"/>
		<path d="M25.84,7.42c-0.03-0.02-0.05-0.05-0.07-0.09C25.8,7.35,25.82,7.38,25.84,7.42z"/>
		<path d="M26.64,8.2c-0.03-0.01-0.07-0.03-0.11-0.05C26.56,8.16,26.6,8.18,26.64,8.2z"/>
		<path d="M26,7.64c-0.03-0.02-0.05-0.05-0.08-0.08C25.95,7.58,25.98,7.61,26,7.64z"/>
		<path d="M2.81,28.35c0.03,0.01,0.05,0.03,0.08,0.05C2.87,28.4,2.84,28.38,2.81,28.35z"/>
		<path d="M2.05,27.58c0.02,0.01,0.05,0.04,0.07,0.07C2.1,27.64,2.07,27.61,2.05,27.58z"/>
		<path d="M24.87,5.59c-0.02-0.02-0.04-0.04-0.06-0.07C24.83,5.54,24.85,5.56,24.87,5.59z"/>
		<path d="M4.11,6.89C4.09,6.92,4.07,6.94,4.04,6.96C4.05,6.94,4.08,6.92,4.11,6.89z"/>
		<path d="M7.65,7.04C7.62,7.03,7.6,7.01,7.57,6.98C7.6,6.99,7.62,7.01,7.65,7.04z"/>
		<path d="M31.43,9.91c-0.02-0.01-0.05-0.03-0.07-0.06C31.38,9.86,31.4,9.88,31.43,9.91z"/>
		<path d="M31.17,9.66c-0.03-0.01-0.05-0.03-0.08-0.06C31.12,9.61,31.15,9.63,31.17,9.66z"/>
		<path d="M31.02,9.53C31,9.52,30.97,9.5,30.94,9.48C30.96,9.49,30.99,9.5,31.02,9.53z"/>
		<path d="M30.92,9.45c-0.03-0.01-0.05-0.02-0.08-0.05C30.86,9.41,30.89,9.43,30.92,9.45z"/>
		<path d="M26.41,8.05C26.38,8.04,26.36,8.03,26.33,8C26.35,8.01,26.38,8.03,26.41,8.05z"/>
		<path d="M6.3,29.74c0.02-0.01,0.04-0.01,0.07,0C6.35,29.75,6.33,29.75,6.3,29.74z"/>
		<path d="M5.74,29.63c0.02-0.01,0.04,0,0.07,0.01C5.79,29.65,5.77,29.64,5.74,29.63z"/>
		<path d="M5.51,29.59c0.02,0,0.05,0,0.08,0.01C5.57,29.6,5.54,29.6,5.51,29.59z"/>
		<path d="M25.59,6.99c-0.02-0.01-0.03-0.03-0.05-0.06C25.56,6.94,25.57,6.96,25.59,6.99z"/>
		<path d="M32.11,11.09c-0.02-0.01-0.03-0.04-0.04-0.07C32.09,11.04,32.1,11.06,32.11,11.09z"/>
		<path d="M2.12,27.67c0.02,0.01,0.04,0.03,0.06,0.05C2.16,27.71,2.14,27.69,2.12,27.67z"/>
		<path d="M31.85,10.51c-0.02-0.01-0.03-0.02-0.04-0.04C31.82,10.47,31.84,10.49,31.85,10.51z"/>
		<path d="M31.8,10.43c-0.02-0.01-0.03-0.02-0.04-0.05C31.78,10.4,31.79,10.41,31.8,10.43z"/>
		<path d="M31.7,10.28c-0.02-0.01-0.03-0.02-0.04-0.04C31.68,10.24,31.69,10.25,31.7,10.28z"/>
		<path d="M24.97,5.77c-0.02-0.01-0.03-0.02-0.04-0.05C24.95,5.73,24.96,5.75,24.97,5.77z"/>
		<path d="M4.24,29.18c0.02,0,0.04,0,0.06,0.02C4.28,29.2,4.26,29.19,4.24,29.18z"/>
		<path d="M4.06,29.1c0.02,0,0.04,0,0.06,0.02C4.1,29.12,4.08,29.11,4.06,29.1z"/>
		<path d="M3.91,29.02c0.02,0,0.04,0.01,0.06,0.02C3.95,29.04,3.93,29.04,3.91,29.02z"/>
		<path d="M25.05,5.92c-0.01-0.01-0.03-0.02-0.04-0.05C25.03,5.88,25.04,5.9,25.05,5.92z"/>
		<path d="M25.1,6c-0.02-0.01-0.03-0.02-0.04-0.05C25.07,5.96,25.09,5.98,25.1,6z"/>
		<path d="M25.18,6.15c-0.02-0.01-0.03-0.02-0.04-0.05C25.15,6.11,25.16,6.13,25.18,6.15z"/>
		<path d="M26.51,8.13c-0.02,0-0.03-0.01-0.05-0.03C26.47,8.1,26.49,8.11,26.51,8.13z"/>
		<path d="M26.15,7.81c-0.02,0-0.03-0.02-0.05-0.04C26.11,7.77,26.13,7.79,26.15,7.81z"/>
		<path d="M26.07,7.73c-0.02,0-0.03-0.02-0.05-0.04C26.04,7.69,26.06,7.71,26.07,7.73z"/>
		<path d="M25.92,7.53c-0.02-0.01-0.03-0.02-0.04-0.04C25.89,7.49,25.9,7.5,25.92,7.53z"/>
		<path d="M25.74,7.25c-0.02-0.01-0.03-0.02-0.04-0.04C25.71,7.21,25.72,7.22,25.74,7.25z"/>
		<path d="M31.48,9.97c-0.02,0-0.03-0.02-0.05-0.04C31.44,9.94,31.46,9.95,31.48,9.97z"/>
		<path d="M2.18,27.74c0.02,0,0.03,0.02,0.05,0.04C2.21,27.77,2.19,27.76,2.18,27.74z"/>
		<path d="M31.58,10.1c-0.02-0.01-0.03-0.02-0.05-0.04C31.55,10.06,31.56,10.08,31.58,10.1z"/>
		<path d="M31.65,10.2c-0.02-0.01-0.03-0.02-0.04-0.04C31.62,10.16,31.64,10.18,31.65,10.2z"/>
		<path d="M2.94,28.45c0.02,0,0.03,0.01,0.05,0.03C2.98,28.48,2.96,28.47,2.94,28.45z"/>
		<path d="M4.17,29.14c0.01,0,0.01,0,0.03,0.01C4.19,29.15,4.18,29.15,4.17,29.14z"/>
		<path d="M25.01,5.84c-0.01,0-0.01,0-0.02-0.02C24.99,5.82,25,5.83,25.01,5.84z"/>
		<path d="M4.52,29.29c0.01,0,0.01,0,0.03,0.01C4.54,29.3,4.54,29.3,4.52,29.29z"/>
		<path d="M3.84,28.99c0.01,0,0.01,0,0.03,0.01C3.86,29,3.85,29,3.84,28.99z"/>
		<path d="M24.92,5.69c-0.01,0-0.01-0.01-0.02-0.02C24.91,5.67,24.92,5.68,24.92,5.69z"/>
		<path d="M25.2,6.2c-0.01,0-0.01,0-0.02-0.02C25.19,6.19,25.19,6.19,25.2,6.2z"/>
		<path d="M3.05,28.53c0.01,0,0.01,0,0.02,0.01C3.07,28.54,3.06,28.54,3.05,28.53z"/>
		<path class="st1" d="M19.5,24.21c-0.92,0.41-1.88,0.57-2.86,0.5c-1.68-0.11-3.08-0.79-4.18-2.06c-0.59-0.69-1-1.47-1.23-2.35
			c-0.21-0.79-0.24-1.6-0.11-2.41c0.22-1.32,0.82-2.45,1.79-3.36c0.79-0.74,1.71-1.22,2.77-1.45c1.12-0.24,2.23-0.19,3.31,0.17
			c1.08,0.36,1.99,1,2.7,1.89c0.57,0.71,0.95,1.5,1.15,2.39c0.14,0.65,0.18,1.3,0.1,1.96c-0.13,1.11-0.54,2.11-1.22,2.98
			C21.13,23.24,20.38,23.81,19.5,24.21z M14.83,14.46c-0.63,0.33-1.17,0.77-1.6,1.33c-0.91,1.19-1.24,2.52-0.96,3.99
			c0.22,1.14,0.79,2.1,1.69,2.84c1.24,1,2.64,1.37,4.2,0.97c1.24-0.32,2.21-1.03,2.9-2.11c0.7-1.1,0.93-2.3,0.69-3.58
			c-0.21-1.09-0.73-2.02-1.57-2.75c-1.05-0.91-2.27-1.34-3.67-1.2C15.92,14.01,15.37,14.18,14.83,14.46z"/>
		<path class="st2" d="M24.13,11.66c0.66-0.1,1.17,0.23,1.32,0.84c0.13,0.54-0.19,1.11-0.73,1.29c-0.54,0.18-1.14-0.09-1.36-0.61
			C23.09,12.53,23.42,11.87,24.13,11.66z M24.02,12.86c0.01,0.02,0.02,0.05,0.03,0.07c0.1,0.18,0.32,0.24,0.5,0.14
			c0.18-0.09,0.25-0.3,0.17-0.48c-0.07-0.17-0.27-0.26-0.44-0.21C24.07,12.44,23.97,12.62,24.02,12.86z"/>
	</g>
</g>
<g id="レイヤー_2">
</g>
</svg>
