<?xml version="1.0" encoding="utf-8"?>
<!-- Generator: Adobe Adobe Illustrator 24.2.0, SVG Export Plug-In . SVG Version: 6.00 Build 0)  -->
<svg version="1.1" id="レイヤー_1" xmlns="http://www.w3.org/2000/svg" xmlns:xlink="http://www.w3.org/1999/xlink" x="0px"
	 y="0px" width="34px" height="34px" viewBox="0 0 34 34" style="enable-background:new 0 0 34 34;" xml:space="preserve">
<style type="text/css">
	.st0{stroke:#000000;stroke-miterlimit:10;}
</style>
<g>
	<path class="st0" d="M29.36,3.16c1.84,1.65,2.95,3.68,3.4,6.08c0.18,0.99,0.34,1.99,0.31,2.99c-0.06,2.18-0.86,4.04-2.46,5.54
		c-0.5,0.47-1.02,0.9-1.54,1.35c-0.34,0.29-0.49,0.62-0.49,1.09c-0.01,2.63-0.04,5.27-0.09,7.9c-0.02,1.38-0.07,2.76-0.11,4.14
		c0,0.05-0.01,0.1-0.02,0.15c-0.35,0-0.68,0.01-1.02-0.01c-0.04,0-0.11-0.11-0.11-0.17c0.03-1.95,0.06-3.9,0.09-5.85
		c0.02-1.16,0.04-2.31,0.06-3.47c0.01-1.03,0.02-2.06,0.03-3.08c0-0.46,0.19-0.84,0.5-1.15c0.4-0.41,0.81-0.81,1.25-1.16
		c1.35-1.06,2.26-2.4,2.6-4.09c0.12-0.6,0.14-1.22,0.11-1.83c-0.06-1.33-0.28-2.65-0.76-3.89c-0.78-2.02-2.05-3.63-4.01-4.65
		c-1.01-0.53-2.01-0.47-2.98,0.09c-2.02,1.15-3.31,2.89-4.01,5.08c-0.4,1.25-0.6,2.53-0.6,3.83c-0.01,2.06,0.8,3.77,2.35,5.13
		c0.51,0.44,1.02,0.88,1.51,1.35c0.44,0.42,0.64,0.94,0.63,1.57c-0.01,2.01,0.02,4.02,0.05,6.03c0.03,2,0.08,3.99,0.11,5.99
		c0,0.07,0,0.13,0,0.23c-0.37,0-0.72,0.01-1.06-0.01c-0.03,0-0.08-0.12-0.09-0.19c-0.02-0.67-0.03-1.34-0.04-2
		c-0.04-2.54-0.07-5.07-0.11-7.61c-0.01-0.89-0.02-1.77-0.05-2.66c0-0.14-0.07-0.32-0.17-0.42c-0.41-0.4-0.83-0.81-1.27-1.17
		c-1.59-1.28-2.58-2.91-2.92-4.92c-0.11-0.64-0.11-1.32-0.07-1.97c0.08-1.43,0.32-2.84,0.84-4.17c0.91-2.31,2.4-4.14,4.66-5.27
		c0.76-0.38,1.56-0.53,2.4-0.4c0.71,0.11,1.36,0.41,1.96,0.81C28.64,2.62,28.99,2.89,29.36,3.16z"/>
	<path class="st0" d="M2.53,17.74c0.35,0.5,0.64,1.03,1.04,1.45c0.92,0.95,1.46,2.09,1.8,3.35c0.29,1.06,0.44,2.14,0.55,3.23
		c0.22,2.19,0.13,4.39,0.16,6.59c0,0.03-0.01,0.06-0.02,0.11c-0.36,0-0.73,0-1.12,0c-0.01-0.09-0.02-0.19-0.02-0.29
		c-0.01-1.58,0-3.17-0.05-4.75c-0.05-1.61-0.22-3.2-0.66-4.76c-0.3-1.05-0.78-1.98-1.55-2.78c-0.71-0.73-1.24-1.58-1.51-2.58
		c-0.25-0.92-0.26-1.86-0.18-2.79c0.15-1.59,0.31-3.18,0.53-4.76c0.22-1.58,0.5-3.15,0.76-4.73C2.33,4.69,2.39,4.34,2.46,4
		c0.08-0.38,0.32-0.56,0.65-0.49C3.4,3.57,3.54,3.85,3.49,4.2c-0.3,1.94-0.63,3.88-0.9,5.82c-0.26,1.89-0.52,3.78-0.5,5.69
		C2.09,16.41,2.22,17.09,2.53,17.74z"/>
	<path class="st0" d="M13.91,11.22c0.12,1.21,0.23,2.39,0.34,3.58c0.17,1.94-0.29,3.68-1.68,5.08c-1.09,1.1-1.55,2.47-1.83,3.93
		c-0.33,1.67-0.42,3.36-0.42,5.06c0,1.1-0.01,2.21-0.02,3.31c0,0.06-0.01,0.12-0.01,0.2c-0.37,0-0.73,0-1.11,0
		c-0.01-0.05-0.02-0.1-0.02-0.15c0.02-1.69,0.01-3.38,0.06-5.06c0.05-1.58,0.23-3.16,0.66-4.69c0.34-1.21,0.83-2.32,1.73-3.23
		c0.55-0.56,1.04-1.18,1.25-1.95c0.13-0.46,0.23-0.95,0.25-1.43c0.07-1.42-0.09-2.83-0.29-4.24c-0.34-2.43-0.72-4.85-1.08-7.28
		c-0.02-0.1-0.04-0.21-0.04-0.31c-0.01-0.24,0.14-0.46,0.36-0.52c0.25-0.07,0.48,0.01,0.59,0.24c0.07,0.15,0.11,0.32,0.14,0.49
		c0.34,2.09,0.68,4.19,1.02,6.28C13.85,10.76,13.87,10.98,13.91,11.22z"/>
	<path class="st0" d="M8.88,10.71C8.85,8.58,8.83,6.46,8.8,4.35c0-0.13,0-0.27,0.03-0.4C8.89,3.66,9.1,3.49,9.37,3.51
		c0.25,0.01,0.46,0.21,0.48,0.48C9.88,4.24,9.89,4.5,9.9,4.75c0.04,1.61,0.08,3.22,0.11,4.84c0.02,1.13,0.04,2.27,0.06,3.4
		c0,0.08,0,0.17-0.01,0.25c-0.05,0.34-0.28,0.55-0.58,0.54c-0.31-0.01-0.53-0.24-0.54-0.58c-0.02-0.47-0.03-0.94-0.04-1.42
		C8.89,11.43,8.88,11.08,8.88,10.71z"/>
	<path class="st0" d="M6.03,13.67c-0.48,0.23-0.88-0.02-0.88-0.55c0.01-1.34,0.03-2.69,0.06-4.03c0.04-1.63,0.08-3.26,0.13-4.88
		c0-0.13,0.02-0.26,0.06-0.37C5.49,3.6,5.66,3.49,5.91,3.51C6.13,3.52,6.3,3.66,6.36,3.88C6.39,3.99,6.4,4.1,6.4,4.21
		C6.37,7.14,6.33,10.07,6.29,13C6.29,13.24,6.27,13.5,6.03,13.67z"/>
</g>
</svg>
