<?xml version="1.0" encoding="utf-8"?>
<!-- Generator: Adobe Adobe Illustrator 24.2.0, SVG Export Plug-In . SVG Version: 6.00 Build 0)  -->
<svg version="1.1" id="レイヤー_2" xmlns="http://www.w3.org/2000/svg" xmlns:xlink="http://www.w3.org/1999/xlink" x="0px"
	 y="0px" width="34px" height="34px" viewBox="0 0 34 34" style="enable-background:new 0 0 34 34;" xml:space="preserve">
<style type="text/css">
	.st0{fill:#E2605F;stroke:#E2605F;stroke-miterlimit:10;}
</style>
<g>
	<path class="st0" d="M23.04,31.83c1.51-0.04,3.01-0.07,4.53-0.11c0-0.1,0-0.18,0-0.27c0.02-3.03,0.03-6.06,0.06-9.09
		c0.01-1.56,0.03-3.13,0.05-4.69c0-0.08,0-0.15,0.01-0.23c0.04-0.39,0.26-0.6,0.64-0.61c0.79-0.02,1.59-0.03,2.38-0.05
		c0.07,0,0.14,0,0.26,0c-0.07-0.09-0.11-0.15-0.16-0.2c-0.71-0.77-1.42-1.54-2.11-2.33c-0.12-0.14-0.2-0.36-0.2-0.54
		c-0.02-3.01-0.03-6.01-0.04-9.02c0-0.34,0-0.34-0.33-0.34c-1.06,0-2.11-0.01-3.17-0.02c-0.05,0-0.1,0.01-0.17,0.01
		c0,0.49,0,0.96,0,1.44c0,0.99,0.01,1.99,0.01,2.98c0,0.46-0.47,0.72-0.88,0.49c-0.09-0.05-0.16-0.12-0.23-0.19
		c-1.9-2.01-3.79-4.03-5.7-6.03c-0.32-0.34-0.7-0.62-1.07-0.95c-4.59,4.83-9.25,9.74-13.93,14.66c0.06,0.01,0.1,0.02,0.14,0.02
		c0.82,0.02,1.65,0.03,2.47,0.05c0.49,0.01,0.71,0.23,0.72,0.73c0.02,1.4,0.03,2.8,0.05,4.21c0.02,2.59,0.05,5.18,0.07,7.77
		c0,0.68-0.01,1.36-0.03,2.03c-0.01,0.21,0.07,0.26,0.27,0.25c1.43-0.05,1.26,0.01,2.7-0.03c0.09,0,0.64-0.01,0.73,0
		c0.36,0.04,0.59,0.23,0.59,0.54c0,0.32-0.26,0.57-0.63,0.58c-0.33,0.02-1.36,0.02-1.69,0.03c-1.36,0.02-0.88-0.01-2.24,0.02
		c-0.51,0.01-0.79-0.26-0.79-0.8c-0.01-1.93-0.07-3.85-0.1-5.78c-0.03-2.47-0.05-4.93-0.07-7.4c0-0.26-0.02-0.52-0.01-0.79
		c0.01-0.19-0.05-0.25-0.25-0.24c-1.03,0.01-2.07,0.01-3.1,0.01c-0.08,0-0.17-0.01-0.25-0.03c-0.23-0.05-0.39-0.18-0.46-0.41
		c-0.07-0.22-0.01-0.41,0.15-0.57c2.66-2.82,5.31-5.64,7.97-8.46c2.35-2.49,4.72-4.98,7.07-7.47c0.06-0.06,0.12-0.12,0.18-0.18
		c0.35-0.34,0.71-0.35,1.05,0c0.45,0.46,0.88,0.93,1.32,1.39c1.56,1.65,3.13,3.3,4.69,4.95c0.01,0.02,0.04,0.03,0.09,0.07
		c0-0.11,0-0.19,0-0.26c-0.01-0.99-0.03-1.97-0.04-2.96c-0.01-0.57,0.2-0.79,0.77-0.8c1.46-0.02,2.93-0.04,4.39-0.05
		c0.63-0.01,0.81,0.19,0.82,0.81c0.03,3.17,0.07,6.35,0.11,9.52c0,0.11,0.08,0.25,0.16,0.33c0.96,1.03,1.93,2.06,2.89,3.08
		c0.19,0.2,0.26,0.42,0.15,0.68c-0.11,0.26-0.34,0.35-0.6,0.37c-0.22,0.01-0.43,0-0.65,0c-0.88,0-1.76-0.01-2.64-0.01
		c-0.04,0-0.08,0.01-0.14,0.01c0,0.08-0.01,0.17-0.01,0.25c-0.02,2.33-0.04,4.67-0.07,7c-0.02,1.81-0.05,3.62-0.08,5.43
		c-0.01,0.56-0.02,1.12-0.04,1.69c-0.01,0.37-0.26,0.61-0.67,0.61c-0.95,0.01-1.9,0-2.84,0.01c-1.2,0.01-2.4,0.03-3.61,0.04
		c-0.68,0-0.88-0.21-0.89-0.88c-0.03-3.59-0.05-7.18-0.08-10.77c0-0.07-0.01-0.14-0.01-0.23c-0.08-0.01-0.16-0.02-0.23-0.02
		c-2.22,0-4.44,0-6.66-0.01c-0.22,0-0.26,0.08-0.26,0.28c-0.01,3.12-0.02,6.24-0.04,9.36c0,0.5-0.01,1-0.04,1.5
		c-0.01,0.16-0.07,0.34-0.17,0.46c-0.25,0.3-0.73,0.19-0.87-0.2c-0.04-0.13-0.05-0.27-0.05-0.41c-0.01-3.81-0.01-7.61-0.02-11.42
		c0-0.51,0.31-0.77,0.77-0.76c2.12,0.01,4.24-0.01,6.36-0.02c0.58,0,1.16,0.02,1.73,0.02c0.43,0.01,0.66,0.24,0.67,0.68
		c0.01,0.69,0.01,1.39,0.01,2.08c0,3-0.01,6-0.01,8.99c0,0.06,0.01,0.12,0.01,0.15C22.19,31.83,22.6,31.83,23.04,31.83z"/>
	<path class="st0" d="M15.14,37.41"/>
</g>
</svg>
