<?xml version="1.0" encoding="utf-8"?>
<!-- Generator: Adobe Adobe Illustrator 24.2.0, SVG Export Plug-In . SVG Version: 6.00 Build 0)  -->
<svg version="1.1" id="レイヤー_1" xmlns="http://www.w3.org/2000/svg" xmlns:xlink="http://www.w3.org/1999/xlink" x="0px"
	 y="0px" width="34px" height="34px" viewBox="0 0 34 34" style="enable-background:new 0 0 34 34;" xml:space="preserve">
<g>
	<path d="M5.07,28.56c0.79,0.53,1.64,0.93,2.53,1.27c1.39,0.53,2.83,0.88,4.29,1.14c1.27,0.23,2.54,0.37,3.83,0.45
		c1.09,0.07,2.18,0.08,3.28,0.05c0.93-0.03,1.85-0.09,2.77-0.19c1.81-0.2,3.59-0.53,5.33-1.1c0.96-0.31,1.89-0.69,2.76-1.21
		c0.5-0.3,0.98-0.63,1.37-1.07c0.17-0.19,0.33-0.4,0.46-0.63c0.34-0.6,0.27-1.19-0.09-1.76c-0.33-0.51-0.78-0.91-1.27-1.25
		c-0.97-0.69-2.05-1.16-3.16-1.54c-1.22-0.42-2.48-0.73-3.76-0.95c-0.2-0.04-0.41-0.07-0.61-0.1c-0.49-0.07-0.89-0.48-0.92-0.98
		c-0.03-0.52,0.3-0.97,0.8-1.1c0.19-0.05,0.38-0.03,0.57,0.01c1.03,0.17,2.04,0.38,3.05,0.65c1.21,0.33,2.38,0.73,3.51,1.28
		c0.96,0.47,1.86,1.02,2.64,1.75c0.55,0.52,1.01,1.11,1.29,1.82c0.44,1.1,0.35,2.18-0.22,3.21c-0.4,0.74-0.98,1.32-1.64,1.83
		c-0.84,0.65-1.77,1.13-2.74,1.54c-1.31,0.54-2.66,0.94-4.04,1.21c-0.81,0.16-1.63,0.3-2.45,0.41c-1.02,0.14-2.05,0.22-3.07,0.26
		c-1.38,0.06-2.76,0.05-4.14-0.05c-0.79-0.06-1.59-0.13-2.38-0.23c-2.11-0.27-4.17-0.72-6.16-1.47c-1.03-0.39-2.03-0.86-2.94-1.48
		c-0.57-0.39-1.1-0.83-1.55-1.35c-0.51-0.59-0.89-1.25-1.04-2.03c-0.16-0.84-0.03-1.63,0.35-2.39c0.31-0.61,0.73-1.12,1.24-1.57
		c0.82-0.74,1.77-1.29,2.78-1.74c1.3-0.59,2.66-1.01,4.05-1.31c0.77-0.17,1.54-0.31,2.32-0.42c0.82-0.12,1.65-0.19,2.47-0.27
		c0.3-0.03,0.61-0.05,0.91-0.05c0.63-0.01,1.09,0.47,1.08,1.1c-0.01,0.5-0.43,0.95-0.93,0.99c-0.45,0.04-0.9,0.06-1.35,0.1
		c-0.65,0.07-1.3,0.14-1.94,0.23c-1.05,0.14-2.09,0.36-3.12,0.64c-1.26,0.34-2.49,0.78-3.63,1.43c-0.52,0.3-1.01,0.64-1.43,1.07
		c-0.22,0.22-0.41,0.46-0.55,0.73C3.29,26,3.3,26.53,3.58,27.05c0.21,0.39,0.5,0.71,0.83,1C4.62,28.23,4.85,28.39,5.07,28.56z"/>
	<path d="M32.83,8.48c-0.12,0.23-0.29,0.39-0.5,0.51c-0.7,0.42-1.4,0.84-2.11,1.27c-1.89,1.14-3.78,2.27-5.67,3.41
		c-0.65,0.39-1.3,0.78-1.96,1.18c-0.29,0.17-0.59,0.24-0.92,0.15c-0.78-0.22-1.08-1.24-0.54-1.87c0.12-0.14,0.27-0.24,0.43-0.34
		c1.33-0.8,2.66-1.6,3.99-2.4c1.36-0.82,2.72-1.64,4.07-2.45c0.03-0.02,0.07-0.04,0.12-0.07c-3.31-1.53-6.61-3.04-9.92-4.57
		c0,0.06-0.01,0.09-0.01,0.13c0,2.48-0.01,4.96-0.01,7.44c0,2.07-0.01,4.14-0.02,6.22c0,1.58-0.01,3.16-0.01,4.74
		c0,0.85,0,1.71-0.01,2.56c-0.01,0.43-0.2,0.77-0.58,0.98c-0.61,0.35-1.38,0.02-1.57-0.67c-0.04-0.14-0.06-0.29-0.06-0.44
		c0-1.06,0.01-2.11,0.01-3.17c0-2.66,0.01-5.32,0.01-7.99c0-2.91,0.01-5.82,0.02-8.72c0-0.79,0.01-1.58,0.01-2.37
		c0-0.28,0.02-0.43,0.1-0.69c0.06-0.19,0.17-0.35,0.2-0.41c0.28-0.56,0.94-0.59,1.51-0.33c0.77,0.35,1.54,0.71,2.31,1.06
		c2.77,1.28,5.54,2.55,8.31,3.83c0.68,0.31,1.35,0.62,2.03,0.93c0.33,0.15,0.6,0.35,0.73,0.7c0.03,0.08,0.05,0.17,0.07,0.26
		c0.03,0.18,0.07,0.36,0.09,0.54C32.98,8.09,32.93,8.29,32.83,8.48z"/>
</g>
</svg>
